<svg width="248" height="71" viewBox="0 0 248 71" fill="none" xmlns="http://www.w3.org/2000/svg">
<path d="M224.602 43.5601H247.722V39.2401H238.642V7.00006H233.642V39.2401H224.602V43.5601Z" fill="white"/>
<path d="M192.861 7H206.501C209.647 7 212.007 7.68 213.581 9.04C215.154 10.4 215.941 12.2933 215.941 14.72C215.941 16.08 215.741 17.2133 215.341 18.12C214.941 19 214.474 19.72 213.941 20.28C213.407 20.8133 212.874 21.2 212.341 21.44C211.834 21.68 211.461 21.84 211.221 21.92V22C211.647 22.0533 212.101 22.1867 212.581 22.4C213.087 22.6133 213.554 22.96 213.981 23.44C214.407 23.8933 214.754 24.4933 215.021 25.24C215.314 25.9867 215.461 26.92 215.461 28.04C215.461 29.72 215.581 31.2533 215.821 32.64C216.087 34 216.487 34.9733 217.021 35.56H211.661C211.287 34.9467 211.061 34.2667 210.981 33.52C210.927 32.7733 210.901 32.0533 210.901 31.36C210.901 30.0533 210.821 28.9333 210.661 28C210.501 27.04 210.207 26.2533 209.781 25.64C209.354 25 208.767 24.5333 208.021 24.24C207.301 23.9467 206.367 23.8 205.221 23.8H197.861V35.56H192.861V7ZM197.861 20H206.061C207.661 20 208.874 19.6267 209.701 18.88C210.527 18.1067 210.941 16.96 210.941 15.44C210.941 14.5333 210.807 13.8 210.541 13.24C210.274 12.6533 209.901 12.2 209.421 11.88C208.967 11.56 208.434 11.3467 207.821 11.24C207.234 11.1333 206.621 11.08 205.981 11.08H197.861V20Z" fill="white"/>
<path d="M168.63 10.4001C167.11 10.4001 165.79 10.7067 164.67 11.3201C163.577 11.9334 162.683 12.7601 161.99 13.8001C161.297 14.8134 160.777 15.9734 160.43 17.2801C160.11 18.5867 159.95 19.9201 159.95 21.2801C159.95 22.6401 160.11 23.9734 160.43 25.2801C160.777 26.5867 161.297 27.7601 161.99 28.8001C162.683 29.8134 163.577 30.6267 164.67 31.2401C165.79 31.8534 167.11 32.1601 168.63 32.1601C170.15 32.1601 171.457 31.8534 172.55 31.2401C173.67 30.6267 174.577 29.8134 175.27 28.8001C175.963 27.7601 176.47 26.5867 176.79 25.2801C177.137 23.9734 177.31 22.6401 177.31 21.2801C177.31 19.9201 177.137 18.5867 176.79 17.2801C176.47 15.9734 175.963 14.8134 175.27 13.8001C174.577 12.7601 173.67 11.9334 172.55 11.3201C171.457 10.7067 170.15 10.4001 168.63 10.4001ZM168.63 6.32007C170.763 6.32007 172.67 6.72007 174.35 7.52007C176.057 8.32007 177.497 9.40007 178.67 10.7601C179.843 12.1201 180.737 13.7067 181.35 15.5201C181.99 17.3334 182.31 19.2534 182.31 21.2801C182.31 23.3334 181.99 25.2667 181.35 27.0801C180.737 28.8934 179.843 30.4801 178.67 31.8401C177.497 33.2001 176.057 34.2801 174.35 35.0801C172.67 35.8534 170.763 36.2401 168.63 36.2401C166.497 36.2401 164.577 35.8534 162.87 35.0801C161.19 34.2801 159.763 33.2001 158.59 31.8401C157.417 30.4801 156.51 28.8934 155.87 27.0801C155.257 25.2667 154.95 23.3334 154.95 21.2801C154.95 19.2534 155.257 17.3334 155.87 15.5201C156.51 13.7067 157.417 12.1201 158.59 10.7601C159.763 9.40007 161.19 8.32007 162.87 7.52007C164.577 6.72007 166.497 6.32007 168.63 6.32007Z" fill="white"/>
<path d="M123.79 7H136.39C138.417 7 140.07 7.29333 141.35 7.88C142.63 8.46667 143.617 9.2 144.31 10.08C145.004 10.96 145.47 11.92 145.71 12.96C145.977 14 146.11 14.96 146.11 15.84C146.11 16.72 145.977 17.68 145.71 18.72C145.47 19.7333 145.004 20.68 144.31 21.56C143.617 22.44 142.63 23.1733 141.35 23.76C140.07 24.32 138.417 24.6 136.39 24.6H128.79V35.56H123.79V7ZM128.79 20.52H136.11C136.67 20.52 137.244 20.44 137.83 20.28C138.417 20.12 138.95 19.8667 139.43 19.52C139.937 19.1467 140.337 18.6667 140.63 18.08C140.95 17.4667 141.11 16.7067 141.11 15.8C141.11 14.8667 140.977 14.0933 140.71 13.48C140.444 12.8667 140.084 12.3867 139.63 12.04C139.177 11.6667 138.657 11.4133 138.07 11.28C137.484 11.1467 136.857 11.08 136.19 11.08H128.79V20.52Z" fill="white"/>
<path d="M92.595 7H113.155V11.32H97.595V18.8H111.995V22.88H97.595V31.24H113.435V35.56H92.595V7Z" fill="white"/>
<path d="M63.6263 7H68.6263V31.24H83.1463V35.56H63.6263V7Z" fill="white"/>
<path d="M32.431 7H52.991V11.32H37.431V18.8H51.831V22.88H37.431V31.24H53.271V35.56H32.431V7Z" fill="white"/>
<path d="M0 0H23.12V4.32H14.04V36.56H9.04V4.32H0V0Z" fill="white"/>
<path d="M177.109 62.5H182.189C182.602 62.5 182.995 62.44 183.369 62.32C183.742 62.1866 184.069 62 184.349 61.76C184.629 61.52 184.849 61.2333 185.009 60.9C185.182 60.5533 185.269 60.16 185.269 59.72C185.269 58.84 185.015 58.1466 184.509 57.64C184.002 57.1333 183.229 56.88 182.189 56.88H177.109V62.5ZM175.749 55.72H182.289C182.875 55.72 183.429 55.7933 183.949 55.94C184.482 56.0866 184.942 56.3133 185.329 56.62C185.729 56.9133 186.042 57.3 186.269 57.78C186.509 58.2466 186.629 58.8 186.629 59.44C186.629 60.3466 186.395 61.1333 185.929 61.8C185.462 62.4666 184.769 62.8933 183.849 63.08V63.12C184.315 63.1866 184.702 63.3133 185.009 63.5C185.315 63.6733 185.562 63.9 185.749 64.18C185.949 64.46 186.089 64.7866 186.169 65.16C186.262 65.52 186.322 65.9133 186.349 66.34C186.362 66.58 186.375 66.8733 186.389 67.22C186.402 67.5666 186.429 67.92 186.469 68.28C186.509 68.6266 186.569 68.96 186.649 69.28C186.742 69.5866 186.862 69.8266 187.009 70H185.509C185.429 69.8666 185.362 69.7066 185.309 69.52C185.269 69.32 185.235 69.12 185.209 68.92C185.195 68.7066 185.182 68.5 185.169 68.3C185.155 68.1 185.142 67.9266 185.129 67.78C185.102 67.2733 185.055 66.7733 184.989 66.28C184.935 65.7733 184.809 65.3266 184.609 64.94C184.422 64.54 184.142 64.22 183.769 63.98C183.409 63.74 182.909 63.6333 182.269 63.66H177.109V70H175.749V55.72Z" fill="white"/>
<path d="M157.524 62.8599C157.524 63.6333 157.624 64.3999 157.824 65.1599C158.038 65.9066 158.358 66.5799 158.784 67.1799C159.224 67.7666 159.784 68.2399 160.464 68.5999C161.144 68.9599 161.958 69.1399 162.904 69.1399C163.851 69.1399 164.658 68.9599 165.324 68.5999C166.004 68.2399 166.558 67.7666 166.984 67.1799C167.424 66.5799 167.744 65.9066 167.944 65.1599C168.158 64.3999 168.264 63.6333 168.264 62.8599C168.264 62.0733 168.158 61.3066 167.944 60.5599C167.744 59.8133 167.424 59.1466 166.984 58.5599C166.558 57.9599 166.004 57.4799 165.324 57.1199C164.658 56.7599 163.851 56.5799 162.904 56.5799C161.958 56.5799 161.144 56.7599 160.464 57.1199C159.784 57.4799 159.224 57.9599 158.784 58.5599C158.358 59.1466 158.038 59.8133 157.824 60.5599C157.624 61.3066 157.524 62.0733 157.524 62.8599ZM156.164 62.8599C156.164 61.8733 156.304 60.9333 156.584 60.0399C156.864 59.1466 157.284 58.3599 157.844 57.6799C158.404 56.9866 159.104 56.4399 159.944 56.0399C160.798 55.6266 161.784 55.4199 162.904 55.4199C164.024 55.4199 165.004 55.6266 165.844 56.0399C166.684 56.4399 167.384 56.9866 167.944 57.6799C168.504 58.3599 168.924 59.1466 169.204 60.0399C169.484 60.9333 169.624 61.8733 169.624 62.8599C169.624 63.8466 169.484 64.7866 169.204 65.6799C168.924 66.5733 168.504 67.3599 167.944 68.0399C167.384 68.7199 166.684 69.2666 165.844 69.6799C165.004 70.0799 164.024 70.2799 162.904 70.2799C161.784 70.2799 160.798 70.0799 159.944 69.6799C159.104 69.2666 158.404 68.7199 157.844 68.0399C157.284 67.3599 156.864 66.5733 156.584 65.6799C156.304 64.7866 156.164 63.8466 156.164 62.8599Z" fill="white"/>
<path d="M141.687 62.72H146.367C147.313 62.72 148.08 62.48 148.667 62C149.253 61.52 149.547 60.7866 149.547 59.8C149.547 58.8133 149.253 58.08 148.667 57.6C148.08 57.12 147.313 56.88 146.367 56.88H141.687V62.72ZM140.327 55.72H146.667C147.307 55.72 147.887 55.8133 148.407 56C148.927 56.1733 149.373 56.44 149.747 56.8C150.12 57.1466 150.407 57.5733 150.607 58.08C150.807 58.5866 150.907 59.16 150.907 59.8C150.907 60.44 150.807 61.0133 150.607 61.52C150.407 62.0266 150.12 62.46 149.747 62.82C149.373 63.1666 148.927 63.4333 148.407 63.62C147.887 63.7933 147.307 63.88 146.667 63.88H141.687V70H140.327V55.72Z" fill="white"/>
<path d="M125.749 64.4H131.369L128.609 57.08L125.749 64.4ZM127.909 55.72H129.429L135.029 70H133.569L131.829 65.56H125.329L123.609 70H122.169L127.909 55.72Z" fill="white"/>
<path d="M117.105 69.9999H116.125L115.945 67.3999H115.905C115.665 67.9066 115.365 68.3466 115.005 68.7199C114.658 69.0799 114.272 69.3799 113.845 69.6199C113.418 69.8466 112.958 70.0133 112.465 70.1199C111.985 70.2266 111.485 70.2799 110.965 70.2799C109.845 70.2799 108.858 70.0799 108.005 69.6799C107.165 69.2666 106.465 68.7199 105.905 68.0399C105.345 67.3599 104.925 66.5733 104.645 65.6799C104.365 64.7866 104.225 63.8466 104.225 62.8599C104.225 61.8733 104.365 60.9333 104.645 60.0399C104.925 59.1466 105.345 58.3599 105.905 57.6799C106.465 56.9866 107.165 56.4399 108.005 56.0399C108.858 55.6266 109.845 55.4199 110.965 55.4199C111.712 55.4199 112.418 55.5199 113.085 55.7199C113.752 55.9199 114.345 56.2199 114.865 56.6199C115.385 57.0199 115.825 57.5133 116.185 58.0999C116.545 58.6866 116.792 59.3733 116.925 60.1599H115.565C115.525 59.7466 115.385 59.3333 115.145 58.9199C114.918 58.4933 114.605 58.1066 114.205 57.7599C113.818 57.4133 113.352 57.1333 112.805 56.9199C112.258 56.6933 111.645 56.5799 110.965 56.5799C110.018 56.5799 109.205 56.7599 108.525 57.1199C107.845 57.4799 107.285 57.9599 106.845 58.5599C106.418 59.1466 106.098 59.8133 105.885 60.5599C105.685 61.3066 105.585 62.0733 105.585 62.8599C105.585 63.6333 105.685 64.3999 105.885 65.1599C106.098 65.9066 106.418 66.5799 106.845 67.1799C107.285 67.7666 107.845 68.2399 108.525 68.5999C109.205 68.9599 110.018 69.1399 110.965 69.1399C111.752 69.1399 112.452 69.0133 113.065 68.7599C113.692 68.4933 114.218 68.1266 114.645 67.6599C115.072 67.1933 115.392 66.6399 115.605 65.9999C115.818 65.3599 115.918 64.6599 115.905 63.8999H111.045V62.7399H117.105V69.9999Z" fill="white"/>
<path d="M86.8028 55.72H88.3228L96.6428 67.8H96.6828V55.72H98.0428V70H96.5228L88.2028 57.92H88.1628V70H86.8028V55.72Z" fill="white"/>
<path d="M78.4892 55.72H79.8492V70H78.4892V55.72Z" fill="white"/>
<path d="M62.4315 65.2999C62.4182 66.0333 62.5315 66.6466 62.7715 67.1399C63.0115 67.6333 63.3382 68.0266 63.7515 68.3199C64.1782 68.6133 64.6782 68.8266 65.2515 68.9599C65.8249 69.0799 66.4382 69.1399 67.0915 69.1399C67.4649 69.1399 67.8715 69.0866 68.3115 68.9799C68.7515 68.8733 69.1582 68.7066 69.5315 68.4799C69.9182 68.2399 70.2382 67.9399 70.4915 67.5799C70.7449 67.2066 70.8715 66.7599 70.8715 66.2399C70.8715 65.8399 70.7782 65.4933 70.5915 65.1999C70.4182 64.9066 70.1849 64.6599 69.8915 64.4599C69.6115 64.2599 69.2982 64.0999 68.9515 63.9799C68.6049 63.8466 68.2649 63.7399 67.9315 63.6599L64.7515 62.8799C64.3382 62.7733 63.9315 62.6399 63.5315 62.4799C63.1449 62.3199 62.8049 62.1066 62.5115 61.8399C62.2182 61.5733 61.9782 61.2466 61.7915 60.8599C61.6182 60.4733 61.5315 59.9999 61.5315 59.4399C61.5315 59.0933 61.5982 58.6866 61.7315 58.2199C61.8649 57.7533 62.1115 57.3133 62.4715 56.8999C62.8449 56.4866 63.3515 56.1399 63.9915 55.8599C64.6315 55.5666 65.4515 55.4199 66.4515 55.4199C67.1582 55.4199 67.8315 55.5133 68.4715 55.6999C69.1115 55.8866 69.6715 56.1666 70.1515 56.5399C70.6315 56.9133 71.0115 57.3799 71.2915 57.9399C71.5849 58.4866 71.7315 59.1266 71.7315 59.8599H70.3715C70.3449 59.3133 70.2182 58.8399 69.9915 58.4399C69.7782 58.0266 69.4915 57.6866 69.1315 57.4199C68.7849 57.1399 68.3782 56.9333 67.9115 56.7999C67.4582 56.6533 66.9782 56.5799 66.4715 56.5799C66.0049 56.5799 65.5515 56.6333 65.1115 56.7399C64.6849 56.8333 64.3049 56.9933 63.9715 57.2199C63.6515 57.4333 63.3915 57.7199 63.1915 58.0799C62.9915 58.4399 62.8915 58.8866 62.8915 59.4199C62.8915 59.7533 62.9449 60.0466 63.0515 60.2999C63.1715 60.5399 63.3315 60.7466 63.5315 60.9199C63.7315 61.0933 63.9582 61.2333 64.2115 61.3399C64.4782 61.4466 64.7582 61.5333 65.0515 61.5999L68.5315 62.4599C69.0382 62.5933 69.5115 62.7599 69.9515 62.9599C70.4049 63.1466 70.7982 63.3866 71.1315 63.6799C71.4782 63.9599 71.7449 64.3066 71.9315 64.7199C72.1315 65.1333 72.2315 65.6333 72.2315 66.2199C72.2315 66.3799 72.2115 66.5933 72.1715 66.8599C72.1449 67.1266 72.0649 67.4133 71.9315 67.7199C71.8115 68.0133 71.6315 68.3133 71.3915 68.6199C71.1649 68.9266 70.8449 69.2066 70.4315 69.4599C70.0315 69.6999 69.5315 69.8933 68.9315 70.0399C68.3315 70.1999 67.6115 70.2799 66.7715 70.2799C65.9315 70.2799 65.1515 70.1866 64.4315 69.9999C63.7115 69.7999 63.0982 69.4999 62.5915 69.0999C62.0849 68.6999 61.6915 68.1866 61.4115 67.5599C61.1449 66.9333 61.0315 66.1799 61.0715 65.2999H62.4315Z" fill="white"/>
</svg>
