<svg width="117" height="15" viewBox="0 0 117 15" fill="none" xmlns="http://www.w3.org/2000/svg">
<path d="M104.805 0.335938H116.365V2.49594H111.825V14.6159H109.325V2.49594H104.805V0.335938Z" fill="white"/>
<path d="M90.4375 0.335938H97.2575C98.8308 0.335938 100.011 0.675937 100.798 1.35594C101.584 2.03594 101.978 2.9826 101.978 4.19594C101.978 4.87594 101.878 5.4426 101.678 5.89594C101.478 6.33594 101.244 6.69594 100.978 6.97594C100.711 7.2426 100.444 7.43594 100.178 7.55594C99.9242 7.67594 99.7375 7.75594 99.6175 7.79594V7.83594C99.8308 7.8626 100.058 7.92927 100.298 8.03594C100.551 8.1426 100.784 8.31594 100.998 8.55594C101.211 8.7826 101.384 9.08261 101.518 9.45594C101.664 9.82927 101.738 10.2959 101.738 10.8559C101.738 11.6959 101.798 12.4626 101.918 13.1559C102.051 13.8359 102.251 14.3226 102.518 14.6159H99.8375C99.6508 14.3093 99.5375 13.9693 99.4975 13.5959C99.4708 13.2226 99.4575 12.8626 99.4575 12.5159C99.4575 11.8626 99.4175 11.3026 99.3375 10.8359C99.2575 10.3559 99.1108 9.9626 98.8975 9.65594C98.6842 9.33594 98.3908 9.1026 98.0175 8.95594C97.6575 8.80927 97.1908 8.73594 96.6175 8.73594H92.9375V14.6159H90.4375V0.335938ZM92.9375 6.83594H97.0375C97.8375 6.83594 98.4442 6.64927 98.8575 6.27594C99.2708 5.88927 99.4775 5.31594 99.4775 4.55594C99.4775 4.1026 99.4108 3.73594 99.2775 3.45594C99.1442 3.1626 98.9575 2.93594 98.7175 2.77594C98.4908 2.61594 98.2242 2.50927 97.9175 2.45594C97.6242 2.4026 97.3175 2.37594 96.9975 2.37594H92.9375V6.83594Z" fill="white"/>
<path d="M79.3166 2.04C78.5566 2.04 77.8966 2.19333 77.3366 2.5C76.7899 2.80667 76.3432 3.22 75.9966 3.74C75.6499 4.24667 75.3899 4.82667 75.2166 5.48C75.0566 6.13333 74.9766 6.8 74.9766 7.48C74.9766 8.16 75.0566 8.82667 75.2166 9.48C75.3899 10.1333 75.6499 10.72 75.9966 11.24C76.3432 11.7467 76.7899 12.1533 77.3366 12.46C77.8966 12.7667 78.5566 12.92 79.3166 12.92C80.0766 12.92 80.7299 12.7667 81.2766 12.46C81.8366 12.1533 82.2899 11.7467 82.6366 11.24C82.9832 10.72 83.2366 10.1333 83.3966 9.48C83.5699 8.82667 83.6566 8.16 83.6566 7.48C83.6566 6.8 83.5699 6.13333 83.3966 5.48C83.2366 4.82667 82.9832 4.24667 82.6366 3.74C82.2899 3.22 81.8366 2.80667 81.2766 2.5C80.7299 2.19333 80.0766 2.04 79.3166 2.04ZM79.3166 0C80.3832 0 81.3366 0.2 82.1766 0.599999C83.0299 1 83.7499 1.54 84.3366 2.22C84.9232 2.9 85.3699 3.69333 85.6766 4.6C85.9966 5.50667 86.1566 6.46667 86.1566 7.48C86.1566 8.50667 85.9966 9.47333 85.6766 10.38C85.3699 11.2867 84.9232 12.08 84.3366 12.76C83.7499 13.44 83.0299 13.98 82.1766 14.38C81.3366 14.7667 80.3832 14.96 79.3166 14.96C78.2499 14.96 77.2899 14.7667 76.4366 14.38C75.5966 13.98 74.8832 13.44 74.2966 12.76C73.7099 12.08 73.2566 11.2867 72.9366 10.38C72.6299 9.47333 72.4766 8.50667 72.4766 7.48C72.4766 6.46667 72.6299 5.50667 72.9366 4.6C73.2566 3.69333 73.7099 2.9 74.2966 2.22C74.8832 1.54 75.5966 1 76.4366 0.599999C77.2899 0.2 78.2499 0 79.3166 0Z" fill="white"/>
<path d="M57.8984 0.335938H64.1984C65.2118 0.335938 66.0384 0.482604 66.6784 0.775938C67.3184 1.06927 67.8118 1.43594 68.1584 1.87594C68.5051 2.31594 68.7384 2.79594 68.8584 3.31594C68.9918 3.83594 69.0584 4.31594 69.0584 4.75594C69.0584 5.19594 68.9918 5.67594 68.8584 6.19594C68.7384 6.7026 68.5051 7.17594 68.1584 7.61594C67.8118 8.05594 67.3184 8.4226 66.6784 8.71594C66.0384 8.99594 65.2118 9.13594 64.1984 9.13594H60.3984V14.6159H57.8984V0.335938ZM60.3984 7.09594H64.0584C64.3384 7.09594 64.6251 7.05594 64.9184 6.97594C65.2118 6.89594 65.4784 6.76927 65.7184 6.59594C65.9718 6.40927 66.1718 6.16927 66.3184 5.87594C66.4784 5.56927 66.5584 5.18927 66.5584 4.73594C66.5584 4.26927 66.4918 3.8826 66.3584 3.57594C66.2251 3.26927 66.0451 3.02927 65.8184 2.85594C65.5918 2.66927 65.3318 2.5426 65.0384 2.47594C64.7451 2.40927 64.4318 2.37594 64.0984 2.37594H60.3984V7.09594Z" fill="white"/>
<path d="M43.3047 0.335938H53.5847V2.49594H45.8047V6.23594H53.0047V8.27594H45.8047V12.4559H53.7247V14.6159H43.3047V0.335938Z" fill="white"/>
<path d="M29.8203 0.335938H32.3203V12.4559H39.5803V14.6159H29.8203V0.335938Z" fill="white"/>
<path d="M15.2188 0.335938H25.4988V2.49594H17.7188V6.23594H24.9188V8.27594H17.7188V12.4559H25.6388V14.6159H15.2188V0.335938Z" fill="white"/>
<path d="M0 0.335938H11.56V2.49594H7.02V14.6159H4.52V2.49594H0V0.335938Z" fill="white"/>
</svg>
